<svg xmlns="http://www.w3.org/2000/svg" viewBox="0 0 100 100" width="100" height="100">
  <g fill="#4CAF50">
    <path d="M50,5 C25.1,5 5,25.1 5,50 C5,74.9 25.1,95 50,95 C74.9,95 95,74.9 95,50 C95,25.1 74.9,5 50,5 Z M50,90 C27.9,90 10,72.1 10,50 C10,27.9 27.9,10 50,10 C72.1,10 90,27.9 90,50 C90,72.1 72.1,90 50,90 Z"/>
    <path d="M35,30 L35,70 C35,72.8 37.2,75 40,75 L70,75 C72.8,75 75,72.8 75,70 L75,40 C75,37.2 72.8,35 70,35 L50,35 L45,30 L35,30 Z"/>
    <path d="M25,35 L25,65 C25,67.8 27.2,70 30,70 L35,70 L35,35 L30,35 C27.2,35 25,37.2 25,40 L25,35 Z" fill-opacity="0.6"/>
    <circle cx="60" cy="55" r="10" fill="#fff"/>
    <path d="M55,55 L65,55 M60,50 L60,60" stroke="#4CAF50" stroke-width="2"/>
  </g>
</svg> 